<svg width="26" height="26" viewBox="0 0 26 26" fill="none" xmlns="http://www.w3.org/2000/svg">
<path d="M22 1H4C2.34315 1 1 2.34315 1 4V22C1 23.6569 2.34315 25 4 25H22C23.6569 25 25 23.6569 25 22V4C25 2.34315 23.6569 1 22 1Z" stroke="white" stroke-width="2" stroke-linecap="round" stroke-linejoin="round"/>
<path d="M7 11.5V19M7 7V7.015M13 19V11.5M19 19V14.5C19 13.7044 18.6839 12.9413 18.1213 12.3787C17.5587 11.8161 16.7956 11.5 16 11.5C15.2044 11.5 14.4413 11.8161 13.8787 12.3787C13.3161 12.9413 13 13.7044 13 14.5" stroke="white" stroke-width="2" stroke-linecap="round" stroke-linejoin="round"/>
</svg>
